<svg width="62" height="57" viewBox="0 0 62 57" fill="none" xmlns="http://www.w3.org/2000/svg">
<g id="Group 5">
<path id="Path 11" d="M16.9386 56.0062H4.03246C3.32799 56.0054 2.636 55.8202 2.02525 55.4691C1.4145 55.118 0.906244 54.6133 0.55098 54.0049C0.195715 53.3966 0.0058099 52.7059 0.000131206 52.0014C-0.00554749 51.297 0.173198 50.6033 0.51861 49.9893L27.428 2.059C27.6096 1.72941 27.8357 1.42639 28.0999 1.15847C28.3535 0.906104 28.6402 0.689505 28.9523 0.514666C29.5597 0.177133 30.243 0 30.9379 0C31.6327 0 32.3161 0.177133 32.9235 0.514666C33.2349 0.689553 33.521 0.906156 33.7738 1.15847C34.0477 1.42432 34.2827 1.72749 34.4718 2.059L61.3852 49.9833C61.7309 50.5978 61.9096 51.292 61.9037 51.9969C61.8978 52.7019 61.7073 53.393 61.3513 54.0015C60.9954 54.61 60.4863 55.1147 59.8747 55.4653C59.2631 55.816 58.5704 56.0004 57.8654 56.0002H44.9692C43.6285 53.455 41.6095 51.3304 39.1359 49.8617C36.6622 48.393 33.8304 47.6375 30.9539 47.6789C28.0779 47.6374 25.2465 48.3924 22.7729 49.8603C20.2993 51.3282 18.2801 53.4518 16.9386 55.9962V56.0062Z" fill="url(#paint0_linear_4632_11590)"/>
<path id="Path 12" opacity="0.27" d="M27.5464 36.9352L31.1806 32.3604H33.0679L29.7125 36.9332L27.5464 36.9352Z" fill="url(#paint1_linear_4632_11590)"/>
<path id="Path 13" opacity="0.22" d="M30.4243 25.5654H36.1022L34.4977 27.5711L28.9702 27.4347L30.4243 25.5654Z" fill="url(#paint2_linear_4632_11590)"/>
<path id="Path 14" d="M30.4367 25.5801L24.1591 33.5404C23.8543 33.8638 23.6846 34.2913 23.6846 34.7357C23.6846 35.1801 23.8543 35.6077 24.1591 35.9311C24.5198 36.3358 24.9736 36.6464 25.4814 36.8362C25.9892 37.0259 26.5356 37.0891 27.0733 37.0201L31.614 31.4204L36.1226 25.5801H30.4367Z" fill="#172B4D"/>
<path id="Path 15" d="M31.1887 32.3916H36.3552C36.3552 32.3916 37.8695 32.7607 38.2626 33.6692C38.4884 34.2746 38.4884 34.9411 38.2626 35.5464C38.2626 35.5464 37.7471 36.9383 36.5377 36.9383H27.5786L31.1887 32.3916Z" fill="#172B4D"/>
<path id="Path 16" d="M26.2043 20.998H35.1635C35.7151 20.998 36.2441 21.2172 36.6341 21.6072C37.0242 21.9973 37.2433 22.5263 37.2433 23.0779C37.2433 23.351 37.1895 23.6215 37.085 23.8738C36.9805 24.1261 36.8273 24.3554 36.6341 24.5485C36.441 24.7417 36.2117 24.8949 35.9594 24.9994C35.707 25.1039 35.4366 25.1577 35.1635 25.1577H26.2043C25.9312 25.1577 25.6608 25.1039 25.4084 24.9994C25.1561 24.8949 24.9268 24.7417 24.7337 24.5485C24.5405 24.3554 24.3873 24.1261 24.2828 23.8738C24.1783 23.6215 24.1245 23.351 24.1245 23.0779C24.1245 22.5263 24.3436 21.9973 24.7337 21.6072C25.1237 21.2172 25.6527 20.998 26.2043 20.998Z" fill="#172B4D"/>
</g>
<defs>
<linearGradient id="paint0_linear_4632_11590" x1="-91.8034" y1="122.43" x2="-91.8034" y2="122.262" gradientUnits="userSpaceOnUse">
<stop stop-color="white"/>
<stop offset="1" stop-color="white"/>
</linearGradient>
<linearGradient id="paint1_linear_4632_11590" x1="-89.3325" y1="119.986" x2="-89.3588" y2="120.023" gradientUnits="userSpaceOnUse">
<stop stop-color="white"/>
<stop offset="1" stop-color="#A7ACAD"/>
</linearGradient>
<linearGradient id="paint2_linear_4632_11590" x1="-89.9986" y1="116.92" x2="-89.9986" y2="116.751" gradientUnits="userSpaceOnUse">
<stop stop-color="#A7ACAD"/>
<stop offset="1" stop-color="white"/>
</linearGradient>
</defs>
</svg>
